<svg xmlns="http://www.w3.org/2000/svg" xmlns:xlink="http://www.w3.org/1999/xlink" width="540" zoomAndPan="magnify" viewBox="0 0 404.88 427.499982" height="570" preserveAspectRatio="xMidYMid meet" version="1.0"><defs><clipPath id="e268e68956"><path d="M 39.777344 6.289062 L 364.898438 6.289062 L 364.898438 420.554688 L 39.777344 420.554688 Z M 39.777344 6.289062 " clip-rule="nonzero"/></clipPath></defs><g clip-path="url(#e268e68956)"><path fill="#343fc6" d="M 204.320312 281.964844 L 204.320312 129.3125 L 156.082031 129.3125 L 260.597656 6.484375 L 365.105469 129.3125 L 316.867188 129.3125 L 316.867188 281.964844 C 316.867188 358.164062 254.519531 420.511719 178.324219 420.511719 C 140.222656 420.511719 105.589844 404.925781 80.476562 379.8125 C 117.457031 400.402344 204.320312 391.148438 204.320312 281.964844 Z M 152.332031 153.757812 L 152.332031 281.964844 C 152.332031 295.636719 163.578125 307.277344 177.121094 307.929688 C 160.878906 388.234375 39.777344 378.125 39.777344 281.964844 L 39.777344 153.757812 Z M 152.332031 153.757812 " fill-opacity="1" fill-rule="evenodd"/></g></svg>