<svg xmlns="http://www.w3.org/2000/svg" xmlns:xlink="http://www.w3.org/1999/xlink" width="155" zoomAndPan="magnify" viewBox="0 0 116.25 116.249995" height="155" preserveAspectRatio="xMidYMid meet" version="1.0"><defs><clipPath id="6c15a93ff8"><path d="M 22.59375 11.4375 L 92.644531 11.4375 L 92.644531 103.839844 L 22.59375 103.839844 Z M 22.59375 11.4375 " clip-rule="nonzero"/></clipPath></defs><g clip-path="url(#6c15a93ff8)"><path fill="#5271ff" d="M 44.050781 31.097656 L 58.203125 39.285156 C 58.265625 39.324219 58.296875 39.378906 58.296875 39.449219 L 58.300781 91.457031 C 58.300781 91.53125 58.269531 91.582031 58.207031 91.621094 L 36.917969 103.917969 C 36.855469 103.957031 36.792969 103.957031 36.730469 103.917969 C 36.667969 103.882812 36.636719 103.828125 36.636719 103.757812 L 36.636719 52.046875 C 36.636719 51.972656 36.605469 51.917969 36.542969 51.882812 L 22.738281 43.910156 C 22.675781 43.875 22.644531 43.820312 22.644531 43.746094 L 22.636719 23.855469 C 22.636719 23.78125 22.667969 23.726562 22.730469 23.691406 L 43.855469 11.488281 C 43.917969 11.453125 43.980469 11.453125 44.042969 11.488281 L 92.820312 39.695312 C 92.882812 39.734375 92.914062 39.785156 92.914062 39.859375 L 92.914062 60.09375 C 92.914062 60.164062 92.882812 60.21875 92.820312 60.253906 L 71.71875 72.425781 C 71.65625 72.464844 71.59375 72.464844 71.53125 72.425781 C 71.46875 72.390625 71.4375 72.335938 71.4375 72.265625 L 71.433594 47.265625 C 71.433594 47.191406 71.464844 47.136719 71.527344 47.101562 C 71.589844 47.066406 71.652344 47.066406 71.714844 47.101562 L 88.449219 56.789062 C 88.511719 56.824219 88.574219 56.824219 88.636719 56.789062 C 88.699219 56.75 88.730469 56.695312 88.730469 56.625 L 88.726562 42.132812 C 88.726562 42.0625 88.695312 42.007812 88.632812 41.972656 L 44.261719 16.316406 C 44.199219 16.277344 44.136719 16.277344 44.074219 16.316406 C 44.011719 16.351562 43.980469 16.40625 43.980469 16.476562 L 43.957031 30.933594 C 43.957031 31.007812 43.988281 31.0625 44.050781 31.097656 Z M 44.050781 31.097656 " fill-opacity="1" fill-rule="nonzero"/></g></svg>