<svg xmlns="http://www.w3.org/2000/svg" width="240" height="240" viewBox="0 0 240 240" fill="none">
  <rect width="240" height="240" fill="white" fill-opacity="0.01"/>
  <rect x="60" y="60" width="120" height="160" rx="8" fill="#E2E8F0"/>
  <rect x="70" y="80" width="80" height="16" rx="4" fill="#CBD5E1"/>
  <rect x="70" y="110" width="100" height="16" rx="4" fill="#CBD5E1"/>
  <rect x="70" y="140" width="90" height="16" rx="4" fill="#CBD5E1"/>
  <rect x="70" y="170" width="70" height="16" rx="4" fill="#CBD5E1"/>
  <rect x="160" y="80" width="10" height="16" rx="4" fill="#94A3B8"/>
  <path d="M160 40L180 40L180 80L160 80L160 60L140 60L140 40L160 40Z" fill="#94A3B8"/>
  <path d="M110 20H130V60H110V20Z" fill="#94A3B8"/>
  <path d="M60 40L80 40L80 60L60 60L60 80L40 80L40 40L60 40Z" fill="#94A3B8"/>
</svg> 