<svg xmlns="http://www.w3.org/2000/svg" xmlns:xlink="http://www.w3.org/1999/xlink" width="91" zoomAndPan="magnify" viewBox="0 0 68.25 67.499996" height="90" preserveAspectRatio="xMidYMid meet" version="1.0"><defs><clipPath id="22f14c4650"><path d="M 0.335938 0.121094 L 67.171875 0.121094 L 67.171875 66.886719 L 0.335938 66.886719 Z M 0.335938 0.121094 " clip-rule="nonzero"/></clipPath><clipPath id="2d61bdb4b2"><path d="M 33.753906 0.0859375 C 15.296875 0.0859375 0.335938 15.046875 0.335938 33.503906 C 0.335938 51.960938 15.296875 66.921875 33.753906 66.921875 C 52.210938 66.921875 67.171875 51.960938 67.171875 33.503906 C 67.171875 15.046875 52.210938 0.0859375 33.753906 0.0859375 Z M 33.753906 0.0859375 " clip-rule="nonzero"/></clipPath><clipPath id="411e5d48d5"><path d="M 20 15.78125 L 60.605469 15.78125 L 60.605469 61.257812 L 20 61.257812 Z M 20 15.78125 " clip-rule="nonzero"/></clipPath><clipPath id="33aa102292"><path d="M 14.753906 6.507812 L 58 6.507812 L 58 55 L 14.753906 55 Z M 14.753906 6.507812 " clip-rule="nonzero"/></clipPath></defs><g clip-path="url(#22f14c4650)"><g clip-path="url(#2d61bdb4b2)"><path fill="#001d4a" d="M 0.335938 0.0859375 L 67.171875 0.0859375 L 67.171875 66.921875 L 0.335938 66.921875 Z M 0.335938 0.0859375 " fill-opacity="1" fill-rule="nonzero"/></g></g><g clip-path="url(#411e5d48d5)"><path fill="#a5edf5" d="M 20.152344 57.183594 L 20.152344 19.859375 C 20.152344 16.730469 23.539062 14.773438 26.25 16.339844 L 58.574219 35.003906 C 61.285156 36.566406 61.285156 40.480469 58.574219 42.042969 L 26.25 60.707031 C 23.539062 62.269531 20.152344 60.316406 20.152344 57.183594 " fill-opacity="1" fill-rule="nonzero"/></g><g clip-path="url(#33aa102292)"><path fill="#0096ae" d="M 19.886719 8.941406 C 19.371094 8.941406 18.855469 9.078125 18.386719 9.351562 C 17.449219 9.890625 16.890625 10.863281 16.890625 11.945312 L 16.890625 49.269531 C 16.890625 50.355469 17.449219 51.324219 18.386719 51.867188 C 19.328125 52.40625 20.445312 52.40625 21.386719 51.867188 L 53.710938 33.203125 C 54.648438 32.660156 55.207031 31.691406 55.207031 30.605469 C 55.207031 29.523438 54.648438 28.554688 53.710938 28.011719 L 21.386719 9.351562 C 20.914062 9.078125 20.402344 8.941406 19.886719 8.941406 Z M 19.886719 54.414062 C 19.003906 54.414062 18.125 54.179688 17.320312 53.71875 C 15.714844 52.789062 14.753906 51.128906 14.753906 49.269531 L 14.753906 11.945312 C 14.753906 10.089844 15.714844 8.425781 17.320312 7.5 C 18.925781 6.570312 20.847656 6.570312 22.453125 7.5 L 54.777344 26.164062 C 56.386719 27.089844 57.347656 28.753906 57.347656 30.605469 C 57.347656 32.464844 56.386719 34.128906 54.777344 35.054688 L 22.453125 53.71875 C 21.652344 54.179688 20.769531 54.414062 19.886719 54.414062 " fill-opacity="1" fill-rule="nonzero"/></g></svg>