<svg xmlns="http://www.w3.org/2000/svg" xmlns:xlink="http://www.w3.org/1999/xlink" width="91" zoomAndPan="magnify" viewBox="0 0 68.25 67.499996" height="90" preserveAspectRatio="xMidYMid meet" version="1.0"><defs><clipPath id="fc67043995"><path d="M 0.335938 0.121094 L 67.171875 0.121094 L 67.171875 66.886719 L 0.335938 66.886719 Z M 0.335938 0.121094 " clip-rule="nonzero"/></clipPath><clipPath id="8eab8c992d"><path d="M 33.753906 0.0859375 C 15.296875 0.0859375 0.335938 15.046875 0.335938 33.503906 C 0.335938 51.960938 15.296875 66.921875 33.753906 66.921875 C 52.210938 66.921875 67.171875 51.960938 67.171875 33.503906 C 67.171875 15.046875 52.210938 0.0859375 33.753906 0.0859375 Z M 33.753906 0.0859375 " clip-rule="nonzero"/></clipPath><clipPath id="657ecde4d5"><path d="M 20 15.769531 L 60.613281 15.769531 L 60.613281 61.257812 L 20 61.257812 Z M 20 15.769531 " clip-rule="nonzero"/></clipPath><clipPath id="b98d76aee9"><path d="M 14.75 6.496094 L 58 6.496094 L 58 55 L 14.75 55 Z M 14.75 6.496094 " clip-rule="nonzero"/></clipPath></defs><g clip-path="url(#fc67043995)"><g clip-path="url(#8eab8c992d)"><path fill="#ffffff" d="M 0.335938 0.0859375 L 67.171875 0.0859375 L 67.171875 66.921875 L 0.335938 66.921875 Z M 0.335938 0.0859375 " fill-opacity="1" fill-rule="nonzero"/></g></g><g clip-path="url(#657ecde4d5)"><path fill="#a5edf5" d="M 20.148438 57.1875 L 20.148438 19.851562 C 20.148438 16.722656 23.539062 14.765625 26.25 16.332031 L 58.582031 34.996094 C 61.292969 36.5625 61.292969 40.476562 58.582031 42.039062 L 26.25 60.707031 C 23.539062 62.273438 20.148438 60.316406 20.148438 57.1875 " fill-opacity="1" fill-rule="nonzero"/></g><g clip-path="url(#b98d76aee9)"><path fill="#0096ae" d="M 19.882812 8.933594 C 19.367188 8.933594 18.855469 9.066406 18.382812 9.339844 C 17.445312 9.878906 16.886719 10.851562 16.886719 11.933594 L 16.886719 49.269531 C 16.886719 50.351562 17.445312 51.324219 18.382812 51.867188 C 19.324219 52.40625 20.445312 52.40625 21.382812 51.867188 L 53.714844 33.199219 C 54.65625 32.65625 55.214844 31.683594 55.214844 30.601562 C 55.214844 29.519531 54.65625 28.546875 53.714844 28.003906 L 21.382812 9.339844 C 20.914062 9.066406 20.398438 8.933594 19.882812 8.933594 Z M 19.882812 54.414062 C 19.003906 54.414062 18.121094 54.179688 17.316406 53.71875 C 15.707031 52.789062 14.75 51.125 14.75 49.269531 L 14.75 11.933594 C 14.75 10.078125 15.707031 8.414062 17.316406 7.488281 C 18.921875 6.558594 20.84375 6.558594 22.453125 7.488281 L 54.785156 26.15625 C 56.390625 27.082031 57.351562 28.746094 57.351562 30.601562 C 57.351562 32.457031 56.390625 34.121094 54.785156 35.050781 L 22.453125 53.71875 C 21.648438 54.179688 20.765625 54.414062 19.882812 54.414062 " fill-opacity="1" fill-rule="nonzero"/></g></svg>