<svg xmlns="http://www.w3.org/2000/svg" xmlns:xlink="http://www.w3.org/1999/xlink" width="178" zoomAndPan="magnify" viewBox="0 0 133.5 30.000001" height="40" preserveAspectRatio="xMidYMid meet" version="1.0"><defs><g/><clipPath id="8930fcceda"><path d="M 4 0.890625 L 13 0.890625 L 13 9 L 4 9 Z M 4 0.890625 " clip-rule="nonzero"/></clipPath><clipPath id="a7f9eefd31"><path d="M 8 11 L 33.355469 11 L 33.355469 29 L 8 29 Z M 8 11 " clip-rule="nonzero"/></clipPath><clipPath id="7281869bbf"><path d="M 24 0.890625 L 33 0.890625 L 33 9 L 24 9 Z M 24 0.890625 " clip-rule="nonzero"/></clipPath></defs><path fill="#ffffff" d="M 11.824219 13.890625 C 10.394531 11.007812 7.410156 10.785156 5.335938 12.105469 C 3.640625 13.179688 2.886719 15.265625 3.433594 17.199219 C 3.773438 18.410156 4.257812 19.554688 4.867188 20.625 C 5.699219 22.082031 6.964844 23.25 8.484375 23.96875 C 10.183594 24.777344 11.765625 25.183594 13.175781 25.183594 C 14.90625 25.183594 16.347656 24.558594 17.578125 23.5625 C 14.9375 21.011719 13.320312 16.914062 11.824219 13.890625 Z M 11.824219 13.890625 " fill-opacity="1" fill-rule="nonzero"/><g clip-path="url(#8930fcceda)"><path fill="#ffffff" d="M 12.21875 4.886719 C 12.21875 5.148438 12.195312 5.40625 12.144531 5.664062 C 12.09375 5.921875 12.015625 6.171875 11.914062 6.414062 C 11.816406 6.65625 11.691406 6.886719 11.546875 7.105469 C 11.402344 7.324219 11.234375 7.523438 11.050781 7.710938 C 10.863281 7.894531 10.664062 8.0625 10.445312 8.207031 C 10.226562 8.351562 9.996094 8.476562 9.753906 8.578125 C 9.511719 8.675781 9.261719 8.753906 9.003906 8.804688 C 8.746094 8.855469 8.488281 8.878906 8.222656 8.878906 C 7.960938 8.878906 7.703125 8.855469 7.445312 8.804688 C 7.1875 8.753906 6.9375 8.675781 6.695312 8.578125 C 6.453125 8.476562 6.222656 8.351562 6.003906 8.207031 C 5.785156 8.0625 5.585938 7.894531 5.398438 7.710938 C 5.214844 7.523438 5.046875 7.324219 4.902344 7.105469 C 4.757812 6.886719 4.632812 6.65625 4.53125 6.414062 C 4.433594 6.171875 4.355469 5.921875 4.304688 5.664062 C 4.253906 5.40625 4.230469 5.148438 4.230469 4.886719 C 4.230469 4.621094 4.253906 4.363281 4.304688 4.105469 C 4.355469 3.847656 4.433594 3.597656 4.53125 3.355469 C 4.632812 3.113281 4.757812 2.882812 4.902344 2.664062 C 5.046875 2.445312 5.214844 2.246094 5.398438 2.058594 C 5.585938 1.875 5.785156 1.707031 6.003906 1.5625 C 6.222656 1.417969 6.453125 1.292969 6.695312 1.195312 C 6.9375 1.09375 7.1875 1.019531 7.445312 0.964844 C 7.703125 0.914062 7.960938 0.890625 8.222656 0.890625 C 8.488281 0.890625 8.746094 0.914062 9.003906 0.964844 C 9.261719 1.019531 9.511719 1.09375 9.753906 1.195312 C 9.996094 1.292969 10.226562 1.417969 10.445312 1.5625 C 10.664062 1.707031 10.863281 1.875 11.050781 2.058594 C 11.234375 2.246094 11.402344 2.445312 11.546875 2.664062 C 11.691406 2.882812 11.816406 3.113281 11.914062 3.355469 C 12.015625 3.597656 12.09375 3.847656 12.144531 4.105469 C 12.195312 4.363281 12.21875 4.621094 12.21875 4.886719 Z M 12.21875 4.886719 " fill-opacity="1" fill-rule="nonzero"/></g><g clip-path="url(#a7f9eefd31)"><path fill="#f8f8f8" d="M 30.9375 12.105469 C 28.863281 10.785156 25.871094 11.003906 24.449219 13.890625 C 21.574219 19.679688 18.269531 29.421875 8.167969 24.625 C 10.84375 26.929688 14.328125 28.320312 18.136719 28.320312 C 25.125 28.320312 31.015625 23.628906 32.835938 17.222656 C 33.375 15.289062 32.632812 13.179688 30.9375 12.105469 Z M 30.9375 12.105469 " fill-opacity="1" fill-rule="nonzero"/></g><g clip-path="url(#7281869bbf)"><path fill="#f8f8f8" d="M 32.039062 4.886719 C 32.039062 5.148438 32.011719 5.40625 31.960938 5.664062 C 31.910156 5.921875 31.835938 6.171875 31.734375 6.414062 C 31.632812 6.65625 31.511719 6.886719 31.367188 7.105469 C 31.21875 7.324219 31.054688 7.523438 30.867188 7.710938 C 30.683594 7.894531 30.480469 8.0625 30.261719 8.207031 C 30.042969 8.351562 29.816406 8.476562 29.570312 8.578125 C 29.328125 8.675781 29.078125 8.753906 28.824219 8.804688 C 28.566406 8.855469 28.304688 8.878906 28.042969 8.878906 C 27.78125 8.878906 27.519531 8.855469 27.265625 8.804688 C 27.007812 8.753906 26.757812 8.675781 26.515625 8.578125 C 26.273438 8.476562 26.042969 8.351562 25.824219 8.207031 C 25.605469 8.0625 25.402344 7.894531 25.21875 7.710938 C 25.03125 7.523438 24.867188 7.324219 24.722656 7.105469 C 24.574219 6.886719 24.453125 6.65625 24.351562 6.414062 C 24.25 6.171875 24.175781 5.921875 24.125 5.664062 C 24.074219 5.40625 24.046875 5.148438 24.046875 4.886719 C 24.046875 4.621094 24.074219 4.363281 24.125 4.105469 C 24.175781 3.847656 24.25 3.597656 24.351562 3.355469 C 24.453125 3.113281 24.574219 2.882812 24.722656 2.664062 C 24.867188 2.445312 25.03125 2.246094 25.21875 2.058594 C 25.402344 1.875 25.605469 1.707031 25.824219 1.5625 C 26.042969 1.417969 26.273438 1.292969 26.515625 1.195312 C 26.757812 1.09375 27.007812 1.019531 27.265625 0.964844 C 27.519531 0.914062 27.78125 0.890625 28.042969 0.890625 C 28.304688 0.890625 28.566406 0.914062 28.824219 0.964844 C 29.078125 1.019531 29.328125 1.09375 29.570312 1.195312 C 29.816406 1.292969 30.042969 1.417969 30.261719 1.5625 C 30.480469 1.707031 30.683594 1.875 30.867188 2.058594 C 31.054688 2.246094 31.21875 2.445312 31.367188 2.664062 C 31.511719 2.882812 31.632812 3.113281 31.734375 3.355469 C 31.835938 3.597656 31.910156 3.847656 31.960938 4.105469 C 32.011719 4.363281 32.039062 4.621094 32.039062 4.886719 Z M 32.039062 4.886719 " fill-opacity="1" fill-rule="nonzero"/></g><g fill="#ffffff" fill-opacity="1"><g transform="translate(96.893529, 27.881316)"><g><path d="M 10.125 -7.53125 L 13.625 -7.53125 C 13.832031 -7.53125 13.976562 -7.484375 14.0625 -7.390625 C 14.144531 -7.296875 14.1875 -7.132812 14.1875 -6.90625 L 14.1875 -5.671875 C 14.1875 -4.835938 14.019531 -4.050781 13.6875 -3.3125 C 13.363281 -2.582031 12.910156 -1.941406 12.328125 -1.390625 C 11.742188 -0.835938 11.050781 -0.40625 10.25 -0.09375 C 9.445312 0.21875 8.566406 0.375 7.609375 0.375 C 6.679688 0.375 5.804688 0.226562 4.984375 -0.0625 C 4.160156 -0.351562 3.4375 -0.765625 2.8125 -1.296875 C 2.195312 -1.835938 1.710938 -2.476562 1.359375 -3.21875 C 1.015625 -3.96875 0.84375 -4.785156 0.84375 -5.671875 L 0.84375 -14.734375 C 0.84375 -15.578125 1.015625 -16.359375 1.359375 -17.078125 C 1.710938 -17.804688 2.195312 -18.445312 2.8125 -19 C 3.4375 -19.5625 4.160156 -20 4.984375 -20.3125 C 5.804688 -20.625 6.679688 -20.78125 7.609375 -20.78125 C 8.566406 -20.78125 9.445312 -20.625 10.25 -20.3125 C 11.050781 -20 11.742188 -19.5625 12.328125 -19 C 12.910156 -18.445312 13.363281 -17.804688 13.6875 -17.078125 C 14.019531 -16.359375 14.1875 -15.578125 14.1875 -14.734375 L 14.1875 -13.171875 C 14.1875 -12.910156 14.140625 -12.734375 14.046875 -12.640625 C 13.960938 -12.554688 13.820312 -12.515625 13.625 -12.515625 L 10.28125 -12.515625 C 9.988281 -12.515625 9.785156 -12.554688 9.671875 -12.640625 C 9.566406 -12.734375 9.515625 -12.914062 9.515625 -13.1875 L 9.515625 -14.5625 C 9.515625 -15.007812 9.359375 -15.421875 9.046875 -15.796875 C 8.734375 -16.171875 8.296875 -16.359375 7.734375 -16.359375 C 7.203125 -16.359375 6.757812 -16.175781 6.40625 -15.8125 C 6.050781 -15.445312 5.875 -15.046875 5.875 -14.609375 L 5.875 -5.8125 C 5.875 -5.363281 6.050781 -4.957031 6.40625 -4.59375 C 6.757812 -4.226562 7.203125 -4.046875 7.734375 -4.046875 C 8.296875 -4.046875 8.734375 -4.234375 9.046875 -4.609375 C 9.359375 -4.984375 9.515625 -5.394531 9.515625 -5.84375 L 9.515625 -6.828125 C 9.515625 -7.097656 9.554688 -7.28125 9.640625 -7.375 C 9.734375 -7.476562 9.894531 -7.53125 10.125 -7.53125 Z M 10.125 -7.53125 "/></g></g></g><g fill="#ffffff" fill-opacity="1"><g transform="translate(112.601911, 27.881316)"><g><path d="M 15.015625 -19.28125 C 15.015625 -17.351562 14.734375 -15.601562 14.171875 -14.03125 C 13.609375 -12.46875 12.796875 -11.175781 11.734375 -10.15625 L 15.421875 -1.09375 C 15.523438 -0.800781 15.53125 -0.546875 15.4375 -0.328125 C 15.34375 -0.109375 15.175781 0 14.9375 0 L 10.859375 0 C 10.515625 0 10.269531 -0.195312 10.125 -0.59375 L 7.25 -7.921875 C 7.070312 -7.910156 6.898438 -7.894531 6.734375 -7.875 C 6.578125 -7.851562 6.410156 -7.835938 6.234375 -7.828125 L 6.234375 -0.65625 C 6.234375 -0.21875 5.988281 0 5.5 0 L 1.828125 0 C 1.398438 0 1.1875 -0.21875 1.1875 -0.65625 L 1.1875 -26.890625 C 1.1875 -27.335938 1.398438 -27.5625 1.828125 -27.5625 L 5.5 -27.5625 C 5.988281 -27.5625 6.234375 -27.335938 6.234375 -26.890625 L 6.234375 -13.109375 C 7.160156 -13.265625 7.867188 -13.65625 8.359375 -14.28125 C 8.859375 -14.914062 9.195312 -15.707031 9.375 -16.65625 C 9.5625 -17.613281 9.65625 -18.648438 9.65625 -19.765625 C 9.65625 -20.191406 9.894531 -20.40625 10.375 -20.40625 L 14.21875 -20.40625 C 14.40625 -20.40625 14.582031 -20.328125 14.75 -20.171875 C 14.925781 -20.015625 15.015625 -19.71875 15.015625 -19.28125 Z M 15.015625 -19.28125 "/></g></g></g><g fill="#ffffff" fill-opacity="1"><g transform="translate(59.059773, 28.018398)"><g><path d="M 8.703125 0 L 7.453125 0 C 6.679688 0 5.957031 -0.09375 5.28125 -0.28125 C 4.613281 -0.46875 4.023438 -0.78125 3.515625 -1.21875 C 3.015625 -1.664062 2.617188 -2.273438 2.328125 -3.046875 C 2.046875 -3.816406 1.90625 -4.785156 1.90625 -5.953125 L 1.90625 -15.953125 L 0.734375 -15.953125 C 0.628906 -15.953125 0.503906 -16.015625 0.359375 -16.140625 C 0.210938 -16.265625 0.140625 -16.445312 0.140625 -16.6875 L 0.140625 -19.640625 C 0.140625 -19.910156 0.207031 -20.109375 0.34375 -20.234375 C 0.488281 -20.359375 0.617188 -20.421875 0.734375 -20.421875 L 1.90625 -20.421875 L 1.90625 -23.46875 C 1.90625 -23.695312 1.945312 -23.875 2.03125 -24 C 2.113281 -24.125 2.257812 -24.210938 2.46875 -24.265625 L 6.1875 -25.359375 C 6.226562 -25.367188 6.289062 -25.375 6.375 -25.375 C 6.769531 -25.375 6.96875 -25.15625 6.96875 -24.71875 L 6.96875 -20.421875 L 8.984375 -20.421875 C 9.359375 -20.421875 9.546875 -20.175781 9.546875 -19.6875 L 9.546875 -16.6875 C 9.546875 -16.476562 9.488281 -16.300781 9.375 -16.15625 C 9.257812 -16.019531 9.109375 -15.953125 8.921875 -15.953125 L 6.96875 -15.953125 L 6.96875 -6.25 C 6.96875 -5.695312 7.097656 -5.269531 7.359375 -4.96875 C 7.628906 -4.664062 8.128906 -4.515625 8.859375 -4.515625 L 9.203125 -4.515625 C 9.492188 -4.515625 9.664062 -4.425781 9.71875 -4.25 C 9.769531 -4.082031 9.796875 -3.925781 9.796875 -3.78125 L 9.796875 -0.640625 C 9.796875 -0.503906 9.742188 -0.363281 9.640625 -0.21875 C 9.546875 -0.0703125 9.234375 0 8.703125 0 Z M 8.703125 0 "/></g></g></g><g fill="#ffffff" fill-opacity="1"><g transform="translate(70.574399, 28.018398)"><g><path d="M 10.703125 -19.84375 L 10.703125 -16.96875 C 10.703125 -16.707031 10.601562 -16.515625 10.40625 -16.390625 C 10.21875 -16.273438 10.003906 -16.21875 9.765625 -16.21875 L 8.75 -16.21875 C 7.925781 -16.21875 7.257812 -15.941406 6.75 -15.390625 C 6.25 -14.835938 6 -14.082031 6 -13.125 L 6 -0.9375 C 6 -0.59375 5.894531 -0.347656 5.6875 -0.203125 C 5.476562 -0.0664062 5.28125 0 5.09375 0 L 1.546875 0 C 1.378906 0 1.238281 -0.0546875 1.125 -0.171875 C 1.007812 -0.296875 0.953125 -0.472656 0.953125 -0.703125 L 0.953125 -13.8125 C 0.953125 -15.070312 1.160156 -16.140625 1.578125 -17.015625 C 2.003906 -17.898438 2.5625 -18.617188 3.25 -19.171875 C 3.9375 -19.722656 4.691406 -20.128906 5.515625 -20.390625 C 6.335938 -20.648438 7.148438 -20.78125 7.953125 -20.78125 C 8.398438 -20.78125 8.800781 -20.769531 9.15625 -20.75 C 9.507812 -20.726562 9.832031 -20.6875 10.125 -20.625 C 10.507812 -20.507812 10.703125 -20.25 10.703125 -19.84375 Z M 10.703125 -19.84375 "/></g></g></g><g fill="#ffffff" fill-opacity="1"><g transform="translate(81.249411, 28.018398)"><g><path d="M 9.421875 -5.921875 L 9.421875 -8.9375 L 8.484375 -8.9375 C 7.765625 -8.9375 7.203125 -8.820312 6.796875 -8.59375 C 6.390625 -8.375 6.109375 -8.078125 5.953125 -7.703125 C 5.796875 -7.335938 5.71875 -6.9375 5.71875 -6.5 L 5.71875 -6.1875 C 5.71875 -5.6875 5.816406 -5.273438 6.015625 -4.953125 C 6.210938 -4.640625 6.460938 -4.410156 6.765625 -4.265625 C 7.066406 -4.117188 7.363281 -4.046875 7.65625 -4.046875 C 8.070312 -4.046875 8.46875 -4.191406 8.84375 -4.484375 C 9.226562 -4.785156 9.421875 -5.265625 9.421875 -5.921875 Z M 7.078125 -12.546875 L 9.421875 -12.53125 L 9.421875 -13.9375 C 9.421875 -14.351562 9.332031 -14.769531 9.15625 -15.1875 C 8.988281 -15.601562 8.722656 -15.953125 8.359375 -16.234375 C 7.992188 -16.523438 7.507812 -16.671875 6.90625 -16.671875 C 6.101562 -16.671875 5.421875 -16.5625 4.859375 -16.34375 C 4.304688 -16.125 3.84375 -15.882812 3.46875 -15.625 C 3.375 -15.5625 3.273438 -15.503906 3.171875 -15.453125 C 3.078125 -15.410156 2.984375 -15.390625 2.890625 -15.390625 C 2.734375 -15.390625 2.609375 -15.476562 2.515625 -15.65625 L 1.515625 -17.875 C 1.421875 -18.050781 1.382812 -18.238281 1.40625 -18.4375 C 1.425781 -18.644531 1.601562 -18.847656 1.9375 -19.046875 C 2.425781 -19.347656 2.9375 -19.628906 3.46875 -19.890625 C 4.007812 -20.148438 4.617188 -20.363281 5.296875 -20.53125 C 5.984375 -20.695312 6.796875 -20.78125 7.734375 -20.78125 C 8.554688 -20.78125 9.363281 -20.640625 10.15625 -20.359375 C 10.957031 -20.085938 11.675781 -19.679688 12.3125 -19.140625 C 12.957031 -18.609375 13.472656 -17.945312 13.859375 -17.15625 C 14.242188 -16.363281 14.4375 -15.453125 14.4375 -14.421875 L 14.4375 -5.734375 C 14.4375 -4.742188 14.269531 -3.894531 13.9375 -3.1875 C 13.613281 -2.476562 13.1875 -1.890625 12.65625 -1.421875 C 12.125 -0.960938 11.546875 -0.597656 10.921875 -0.328125 C 10.304688 -0.0664062 9.703125 0.113281 9.109375 0.21875 C 8.523438 0.320312 8.019531 0.375 7.59375 0.375 C 6.8125 0.375 6.015625 0.25 5.203125 0 C 4.390625 -0.238281 3.640625 -0.613281 2.953125 -1.125 C 2.273438 -1.644531 1.722656 -2.316406 1.296875 -3.140625 C 0.878906 -3.960938 0.671875 -4.953125 0.671875 -6.109375 L 0.671875 -6.546875 C 0.671875 -7.609375 0.84375 -8.519531 1.1875 -9.28125 C 1.539062 -10.039062 2.015625 -10.660156 2.609375 -11.140625 C 3.203125 -11.628906 3.882812 -11.984375 4.65625 -12.203125 C 5.425781 -12.429688 6.234375 -12.546875 7.078125 -12.546875 Z M 7.078125 -12.546875 "/></g></g></g><g fill="#ffffff" fill-opacity="1"><g transform="translate(43.651662, 27.881321)"><g><path d="M 9.78125 -5.890625 L 9.78125 -19.71875 C 9.78125 -19.945312 9.835938 -20.117188 9.953125 -20.234375 C 10.066406 -20.347656 10.207031 -20.40625 10.375 -20.40625 L 14.21875 -20.40625 C 14.394531 -20.40625 14.539062 -20.347656 14.65625 -20.234375 C 14.769531 -20.117188 14.828125 -19.945312 14.828125 -19.71875 L 14.828125 -5.78125 C 14.828125 -4.644531 14.550781 -3.613281 14 -2.6875 C 13.457031 -1.757812 12.664062 -1.015625 11.625 -0.453125 C 10.59375 0.0976562 9.332031 0.375 7.84375 0.375 C 6.863281 0.375 5.960938 0.207031 5.140625 -0.125 C 4.328125 -0.457031 3.625 -0.910156 3.03125 -1.484375 C 2.445312 -2.054688 1.988281 -2.710938 1.65625 -3.453125 C 1.332031 -4.191406 1.171875 -4.96875 1.171875 -5.78125 L 1.171875 -19.703125 C 1.171875 -19.929688 1.226562 -20.101562 1.34375 -20.21875 C 1.457031 -20.34375 1.597656 -20.40625 1.765625 -20.40625 L 5.65625 -20.40625 C 6.03125 -20.40625 6.21875 -20.171875 6.21875 -19.703125 L 6.21875 -5.921875 C 6.21875 -5.421875 6.375 -4.984375 6.6875 -4.609375 C 7 -4.234375 7.441406 -4.046875 8.015625 -4.046875 C 8.578125 -4.046875 9.007812 -4.226562 9.3125 -4.59375 C 9.625 -4.96875 9.78125 -5.398438 9.78125 -5.890625 Z M 9.78125 -5.890625 "/></g></g></g></svg>