<svg xmlns="http://www.w3.org/2000/svg" xmlns:xlink="http://www.w3.org/1999/xlink" width="178" zoomAndPan="magnify" viewBox="0 0 133.5 30.000001" height="40" preserveAspectRatio="xMidYMid meet" version="1.0"><defs><g/><clipPath id="5522db4f33"><path d="M 6.972656 1.730469 L 27.292969 1.730469 L 27.292969 27.132812 L 6.972656 27.132812 Z M 6.972656 1.730469 " clip-rule="nonzero"/></clipPath></defs><g clip-path="url(#5522db4f33)"><path fill="#ffffff" d="M 17.128906 18.75 L 17.128906 9.324219 L 14.152344 9.324219 L 20.605469 1.742188 L 27.054688 9.324219 L 24.078125 9.324219 L 24.078125 18.75 C 24.078125 23.453125 20.230469 27.304688 15.523438 27.304688 C 13.171875 27.304688 11.035156 26.339844 9.484375 24.789062 C 11.765625 26.0625 17.128906 25.488281 17.128906 18.75 Z M 13.921875 10.835938 L 13.921875 18.75 C 13.921875 19.59375 14.613281 20.3125 15.449219 20.351562 C 14.449219 25.308594 6.972656 24.6875 6.972656 18.75 L 6.972656 10.835938 Z M 13.921875 10.835938 " fill-opacity="1" fill-rule="evenodd"/></g><g fill="#ffffff" fill-opacity="1"><g transform="translate(35.546215, 26.935906)"><g><path d="M 10 -6.265625 L 10 -24.75 C 10 -24.945312 10.046875 -25.117188 10.140625 -25.265625 C 10.242188 -25.410156 10.394531 -25.484375 10.59375 -25.484375 L 14.328125 -25.484375 C 14.535156 -25.484375 14.6875 -25.40625 14.78125 -25.25 C 14.875 -25.101562 14.921875 -24.9375 14.921875 -24.75 L 14.921875 -5.984375 C 14.921875 -5.097656 14.734375 -4.269531 14.359375 -3.5 C 13.992188 -2.726562 13.488281 -2.050781 12.84375 -1.46875 C 12.207031 -0.882812 11.472656 -0.425781 10.640625 -0.09375 C 9.816406 0.238281 8.945312 0.40625 8.03125 0.40625 C 7.113281 0.40625 6.238281 0.238281 5.40625 -0.09375 C 4.570312 -0.425781 3.835938 -0.882812 3.203125 -1.46875 C 2.578125 -2.050781 2.078125 -2.726562 1.703125 -3.5 C 1.335938 -4.269531 1.15625 -5.097656 1.15625 -5.984375 L 1.15625 -24.765625 C 1.15625 -24.960938 1.203125 -25.128906 1.296875 -25.265625 C 1.398438 -25.410156 1.515625 -25.484375 1.640625 -25.484375 L 5.53125 -25.484375 C 5.75 -25.484375 5.894531 -25.410156 5.96875 -25.265625 C 6.039062 -25.128906 6.078125 -24.960938 6.078125 -24.765625 L 6.078125 -6.265625 C 6.078125 -5.679688 6.25 -5.160156 6.59375 -4.703125 C 6.9375 -4.253906 7.421875 -4.03125 8.046875 -4.03125 C 8.460938 -4.03125 8.816406 -4.132812 9.109375 -4.34375 C 9.398438 -4.550781 9.617188 -4.828125 9.765625 -5.171875 C 9.921875 -5.515625 10 -5.878906 10 -6.265625 Z M 10 -6.265625 "/></g></g></g><g fill="#ffffff" fill-opacity="1"><g transform="translate(51.626251, 26.935906)"><g><path d="M 12.28125 -21.015625 L 8.859375 -21.015625 L 8.859375 -0.640625 C 8.859375 -0.429688 8.804688 -0.269531 8.703125 -0.15625 C 8.597656 -0.0507812 8.472656 0 8.328125 0 L 4.46875 0 C 4.3125 0 4.179688 -0.0507812 4.078125 -0.15625 C 3.984375 -0.269531 3.9375 -0.429688 3.9375 -0.640625 L 3.9375 -21.015625 L 0.515625 -21.015625 C 0.359375 -21.015625 0.226562 -21.066406 0.125 -21.171875 C 0.03125 -21.285156 -0.015625 -21.453125 -0.015625 -21.671875 L -0.015625 -24.8125 C -0.015625 -25.03125 0.03125 -25.195312 0.125 -25.3125 C 0.226562 -25.425781 0.359375 -25.484375 0.515625 -25.484375 L 12.28125 -25.484375 C 12.445312 -25.484375 12.578125 -25.425781 12.671875 -25.3125 C 12.765625 -25.207031 12.8125 -25.046875 12.8125 -24.828125 L 12.8125 -21.671875 C 12.8125 -21.453125 12.765625 -21.285156 12.671875 -21.171875 C 12.578125 -21.066406 12.445312 -21.015625 12.28125 -21.015625 Z M 12.28125 -21.015625 "/></g></g></g><g fill="#ffffff" fill-opacity="1"><g transform="translate(64.409233, 26.935906)"><g><path d="M 10.1875 -15.78125 L 10.1875 -18.84375 C 10.1875 -19.5 9.992188 -20.023438 9.609375 -20.421875 C 9.222656 -20.816406 8.707031 -21.015625 8.0625 -21.015625 L 6.21875 -21.015625 L 6.21875 -13.703125 L 7.9375 -13.703125 C 8.675781 -13.703125 9.234375 -13.890625 9.609375 -14.265625 C 9.992188 -14.648438 10.1875 -15.15625 10.1875 -15.78125 Z M 14.28125 -0.015625 L 10.890625 -0.015625 C 10.679688 -0.015625 10.484375 -0.0820312 10.296875 -0.21875 C 10.117188 -0.363281 10.03125 -0.570312 10.03125 -0.84375 L 10.03125 -4.703125 C 10.03125 -6.472656 9.710938 -7.757812 9.078125 -8.5625 C 8.441406 -9.375 7.488281 -9.820312 6.21875 -9.90625 L 6.21875 -0.6875 C 6.21875 -0.226562 6.019531 0 5.625 0 L 1.9375 0 C 1.53125 0 1.328125 -0.226562 1.328125 -0.6875 L 1.328125 -24.765625 C 1.328125 -25.242188 1.535156 -25.484375 1.953125 -25.484375 L 8.453125 -25.484375 C 9.398438 -25.484375 10.273438 -25.3125 11.078125 -24.96875 C 11.890625 -24.625 12.597656 -24.144531 13.203125 -23.53125 C 13.804688 -22.914062 14.273438 -22.207031 14.609375 -21.40625 C 14.941406 -20.613281 15.109375 -19.757812 15.109375 -18.84375 L 15.109375 -16.203125 C 15.109375 -15.109375 14.851562 -14.175781 14.34375 -13.40625 C 13.84375 -12.644531 13.21875 -12.015625 12.46875 -11.515625 C 13.300781 -10.816406 13.921875 -9.867188 14.328125 -8.671875 C 14.734375 -7.472656 14.9375 -5.953125 14.9375 -4.109375 L 14.9375 -0.796875 C 14.9375 -0.628906 14.882812 -0.457031 14.78125 -0.28125 C 14.6875 -0.101562 14.519531 -0.015625 14.28125 -0.015625 Z M 14.28125 -0.015625 "/></g></g></g><g fill="#ffffff" fill-opacity="1"><g transform="translate(80.507687, 26.935906)"><g><path d="M 6.078125 -19.234375 L 6.078125 -10.375 L 10 -10.375 L 10 -19.234375 C 10 -19.804688 9.828125 -20.316406 9.484375 -20.765625 C 9.140625 -21.210938 8.660156 -21.4375 8.046875 -21.4375 C 7.421875 -21.4375 6.9375 -21.210938 6.59375 -20.765625 C 6.25 -20.316406 6.078125 -19.804688 6.078125 -19.234375 Z M 14.921875 -19.5 L 14.921875 -0.734375 C 14.921875 -0.546875 14.875 -0.375 14.78125 -0.21875 C 14.6875 -0.0703125 14.535156 0 14.328125 0 L 10.59375 0 C 10.40625 0 10.257812 -0.0703125 10.15625 -0.21875 C 10.050781 -0.363281 10 -0.535156 10 -0.734375 L 10 -6.078125 L 6.078125 -6.078125 L 6.078125 -0.71875 C 6.078125 -0.519531 6.039062 -0.347656 5.96875 -0.203125 C 5.894531 -0.0664062 5.75 0 5.53125 0 L 1.640625 0 C 1.503906 0 1.390625 -0.0664062 1.296875 -0.203125 C 1.203125 -0.347656 1.15625 -0.519531 1.15625 -0.71875 L 1.15625 -19.5 C 1.15625 -20.382812 1.335938 -21.210938 1.703125 -21.984375 C 2.078125 -22.765625 2.578125 -23.445312 3.203125 -24.03125 C 3.835938 -24.613281 4.570312 -25.066406 5.40625 -25.390625 C 6.238281 -25.722656 7.113281 -25.890625 8.03125 -25.890625 C 8.945312 -25.890625 9.816406 -25.722656 10.640625 -25.390625 C 11.472656 -25.066406 12.207031 -24.613281 12.84375 -24.03125 C 13.488281 -23.445312 13.992188 -22.765625 14.359375 -21.984375 C 14.734375 -21.210938 14.921875 -20.382812 14.921875 -19.5 Z M 14.921875 -19.5 "/></g></g></g><g fill="#ffffff" fill-opacity="1"><g transform="translate(96.587723, 26.935906)"><g><path d="M 14.3125 -19.390625 L 14.3125 -17.609375 C 14.3125 -17.328125 14.273438 -17.117188 14.203125 -16.984375 C 14.128906 -16.859375 13.96875 -16.796875 13.71875 -16.796875 L 10.296875 -16.796875 C 10.078125 -16.796875 9.925781 -16.851562 9.84375 -16.96875 C 9.757812 -17.082031 9.71875 -17.269531 9.71875 -17.53125 L 9.71875 -19.25 C 9.71875 -19.613281 9.644531 -19.960938 9.5 -20.296875 C 9.351562 -20.640625 9.140625 -20.914062 8.859375 -21.125 C 8.578125 -21.34375 8.234375 -21.453125 7.828125 -21.453125 C 7.222656 -21.453125 6.734375 -21.234375 6.359375 -20.796875 C 5.992188 -20.367188 5.8125 -19.863281 5.8125 -19.28125 L 5.8125 -6.265625 C 5.8125 -5.878906 5.890625 -5.515625 6.046875 -5.171875 C 6.210938 -4.828125 6.445312 -4.550781 6.75 -4.34375 C 7.050781 -4.132812 7.410156 -4.03125 7.828125 -4.03125 C 8.503906 -4.03125 9.003906 -4.253906 9.328125 -4.703125 C 9.648438 -5.160156 9.8125 -5.679688 9.8125 -6.265625 L 9.8125 -8.453125 C 9.8125 -8.734375 9.851562 -8.921875 9.9375 -9.015625 C 10.019531 -9.117188 10.164062 -9.171875 10.375 -9.171875 L 13.8125 -9.171875 C 14.019531 -9.171875 14.171875 -9.125 14.265625 -9.03125 C 14.367188 -8.945312 14.421875 -8.765625 14.421875 -8.484375 L 14.421875 -5.984375 C 14.421875 -4.660156 14.125 -3.519531 13.53125 -2.5625 C 12.9375 -1.601562 12.132812 -0.867188 11.125 -0.359375 C 10.125 0.148438 9.015625 0.40625 7.796875 0.40625 C 6.867188 0.40625 5.988281 0.265625 5.15625 -0.015625 C 4.332031 -0.304688 3.597656 -0.726562 2.953125 -1.28125 C 2.316406 -1.84375 1.816406 -2.519531 1.453125 -3.3125 C 1.097656 -4.101562 0.921875 -4.992188 0.921875 -5.984375 L 0.921875 -19.484375 C 0.921875 -20.390625 1.085938 -21.234375 1.421875 -22.015625 C 1.765625 -22.796875 2.242188 -23.472656 2.859375 -24.046875 C 3.472656 -24.628906 4.195312 -25.078125 5.03125 -25.390625 C 5.863281 -25.710938 6.785156 -25.875 7.796875 -25.875 C 8.910156 -25.875 9.878906 -25.6875 10.703125 -25.3125 C 11.523438 -24.945312 12.203125 -24.457031 12.734375 -23.84375 C 13.265625 -23.226562 13.660156 -22.535156 13.921875 -21.765625 C 14.179688 -20.992188 14.3125 -20.203125 14.3125 -19.390625 Z M 14.3125 -19.390625 "/></g></g></g><g fill="#ffffff" fill-opacity="1"><g transform="translate(111.70996, 26.935906)"><g><path d="M 11.96875 -12.796875 C 13.03125 -11.984375 13.851562 -10.957031 14.4375 -9.71875 C 15.03125 -8.476562 15.328125 -7.046875 15.328125 -5.421875 L 15.328125 -0.78125 C 15.328125 -0.613281 15.273438 -0.441406 15.171875 -0.265625 C 15.078125 -0.0859375 14.90625 0 14.65625 0 L 11.234375 0 C 11.023438 0 10.832031 -0.0664062 10.65625 -0.203125 C 10.488281 -0.347656 10.40625 -0.554688 10.40625 -0.828125 L 10.40625 -4.84375 C 10.40625 -5.914062 10.28125 -6.851562 10.03125 -7.65625 C 9.789062 -8.46875 9.363281 -9.109375 8.75 -9.578125 C 8.144531 -10.054688 7.300781 -10.320312 6.21875 -10.375 L 6.21875 -0.703125 C 6.21875 -0.234375 6.023438 0 5.640625 0 L 1.953125 0 C 1.535156 0 1.328125 -0.234375 1.328125 -0.703125 L 1.328125 -24.765625 C 1.328125 -25.242188 1.535156 -25.484375 1.953125 -25.484375 L 5.625 -25.484375 C 6.019531 -25.484375 6.21875 -25.242188 6.21875 -24.765625 L 6.21875 -14.984375 C 7.238281 -15.078125 8.03125 -15.363281 8.59375 -15.84375 C 9.164062 -16.320312 9.566406 -16.960938 9.796875 -17.765625 C 10.023438 -18.566406 10.140625 -19.484375 10.140625 -20.515625 L 10.140625 -24.640625 C 10.140625 -24.921875 10.226562 -25.128906 10.40625 -25.265625 C 10.59375 -25.410156 10.789062 -25.484375 11 -25.484375 L 14.40625 -25.484375 C 14.644531 -25.484375 14.8125 -25.394531 14.90625 -25.21875 C 15.007812 -25.039062 15.0625 -24.867188 15.0625 -24.703125 L 15.0625 -19.96875 C 15.0625 -18.40625 14.789062 -17.019531 14.25 -15.8125 C 13.707031 -14.613281 12.945312 -13.609375 11.96875 -12.796875 Z M 11.96875 -12.796875 "/></g></g></g></svg>