<svg xmlns="http://www.w3.org/2000/svg" xmlns:xlink="http://www.w3.org/1999/xlink" width="178" zoomAndPan="magnify" viewBox="0 0 133.5 30.000001" height="40" preserveAspectRatio="xMidYMid meet" version="1.0"><defs><g/><clipPath id="ca2e58c197"><path d="M 3.207031 1.085938 L 23.53125 1.085938 L 23.53125 27.9375 L 3.207031 27.9375 Z M 3.207031 1.085938 " clip-rule="nonzero"/></clipPath></defs><g clip-path="url(#ca2e58c197)"><path fill="#ffffff" d="M 9.441406 6.792969 L 13.546875 9.167969 C 13.566406 9.179688 13.574219 9.195312 13.574219 9.214844 L 13.574219 24.3125 C 13.574219 24.335938 13.566406 24.351562 13.546875 24.363281 L 7.367188 27.933594 C 7.351562 27.941406 7.332031 27.941406 7.3125 27.933594 C 7.296875 27.921875 7.285156 27.90625 7.285156 27.882812 L 7.285156 12.875 C 7.285156 12.851562 7.277344 12.835938 7.257812 12.824219 L 3.253906 10.511719 C 3.234375 10.5 3.226562 10.484375 3.226562 10.464844 L 3.222656 4.6875 C 3.222656 4.667969 3.234375 4.652344 3.25 4.640625 L 9.382812 1.101562 C 9.402344 1.089844 9.417969 1.089844 9.4375 1.101562 L 23.597656 9.289062 C 23.617188 9.296875 23.625 9.316406 23.625 9.335938 L 23.625 15.210938 C 23.625 15.230469 23.617188 15.246094 23.597656 15.257812 L 17.472656 18.789062 C 17.453125 18.800781 17.433594 18.800781 17.417969 18.789062 C 17.398438 18.78125 17.390625 18.761719 17.390625 18.742188 L 17.386719 11.484375 C 17.386719 11.464844 17.398438 11.449219 17.414062 11.4375 C 17.433594 11.425781 17.453125 11.425781 17.46875 11.4375 L 22.328125 14.25 C 22.347656 14.261719 22.363281 14.261719 22.382812 14.25 C 22.402344 14.238281 22.410156 14.222656 22.410156 14.203125 L 22.410156 9.996094 C 22.410156 9.976562 22.398438 9.960938 22.382812 9.949219 L 9.5 2.5 C 9.484375 2.492188 9.464844 2.492188 9.445312 2.5 C 9.429688 2.511719 9.417969 2.527344 9.417969 2.546875 L 9.414062 6.746094 C 9.414062 6.765625 9.421875 6.78125 9.441406 6.792969 Z M 9.441406 6.792969 " fill-opacity="1" fill-rule="nonzero"/></g><g fill="#ffffff" fill-opacity="1"><g transform="translate(26.72916, 22.426205)"><g><path d="M -0.359375 -16.265625 L 4.6875 -16.75 L 6.96875 -10.21875 L 7.296875 -10.234375 L 8.78125 -16.5 L 14.546875 -16.75 L 9.96875 -6.75 L 9.953125 0 L 3.96875 0 L 4.15625 -6.484375 Z M -0.359375 -16.265625 "/></g></g></g><g fill="#ffffff" fill-opacity="1"><g transform="translate(40.558706, 22.426205)"><g><path d="M 0.484375 -5.71875 C 0.484375 -6.46875 0.515625 -7.21875 0.578125 -7.96875 C 0.640625 -8.695312 0.847656 -9.375 1.203125 -10 C 1.546875 -10.601562 2.101562 -11.101562 2.875 -11.5 C 3.625 -11.90625 4.691406 -12.140625 6.078125 -12.203125 L 6.578125 -12.203125 C 7.898438 -12.203125 8.921875 -12.003906 9.640625 -11.609375 C 10.359375 -11.191406 10.894531 -10.671875 11.25 -10.046875 C 11.582031 -9.410156 11.78125 -8.71875 11.84375 -7.96875 C 11.90625 -7.195312 11.9375 -6.460938 11.9375 -5.765625 C 11.9375 -4.984375 11.890625 -4.226562 11.796875 -3.5 C 11.703125 -2.75 11.460938 -2.078125 11.078125 -1.484375 C 10.691406 -0.890625 10.109375 -0.421875 9.328125 -0.078125 C 8.546875 0.296875 7.46875 0.484375 6.09375 0.484375 C 4.832031 0.484375 3.835938 0.296875 3.109375 -0.078125 C 2.359375 -0.441406 1.789062 -0.914062 1.40625 -1.5 C 1.007812 -2.082031 0.753906 -2.75 0.640625 -3.5 C 0.535156 -4.226562 0.484375 -4.96875 0.484375 -5.71875 Z M 6.140625 -8.234375 C 5.765625 -8.171875 5.476562 -8.085938 5.28125 -7.984375 C 5.070312 -7.878906 4.929688 -7.722656 4.859375 -7.515625 C 4.765625 -7.304688 4.707031 -7.039062 4.6875 -6.71875 C 4.675781 -6.40625 4.671875 -5.992188 4.671875 -5.484375 C 4.671875 -4.984375 4.675781 -4.550781 4.6875 -4.1875 C 4.707031 -3.820312 4.765625 -3.519531 4.859375 -3.28125 C 4.929688 -3.019531 5.070312 -2.835938 5.28125 -2.734375 C 5.476562 -2.597656 5.765625 -2.53125 6.140625 -2.53125 C 6.546875 -2.53125 6.851562 -2.597656 7.0625 -2.734375 C 7.269531 -2.835938 7.421875 -3.019531 7.515625 -3.28125 C 7.609375 -3.519531 7.660156 -3.820312 7.671875 -4.1875 C 7.671875 -4.550781 7.671875 -4.984375 7.671875 -5.484375 C 7.671875 -5.921875 7.679688 -6.316406 7.703125 -6.671875 C 7.703125 -7.023438 7.675781 -7.320312 7.625 -7.5625 C 7.582031 -7.800781 7.488281 -7.984375 7.34375 -8.109375 C 7.195312 -8.234375 6.984375 -8.296875 6.703125 -8.296875 C 6.554688 -8.296875 6.367188 -8.273438 6.140625 -8.234375 Z M 6.140625 -8.234375 "/></g></g></g><g fill="#ffffff" fill-opacity="1"><g transform="translate(52.976592, 22.426205)"><g><path d="M 0.734375 -11.671875 L 5.03125 -11.96875 L 4.90625 -5.484375 C 4.90625 -5.015625 4.910156 -4.597656 4.921875 -4.234375 C 4.921875 -3.867188 4.960938 -3.554688 5.046875 -3.296875 C 5.128906 -3.046875 5.257812 -2.859375 5.4375 -2.734375 C 5.59375 -2.585938 5.828125 -2.515625 6.140625 -2.515625 C 6.179688 -2.515625 6.222656 -2.519531 6.265625 -2.53125 C 6.296875 -2.53125 6.335938 -2.53125 6.390625 -2.53125 C 6.785156 -2.5625 7.085938 -2.644531 7.296875 -2.78125 C 7.503906 -2.90625 7.65625 -3.085938 7.75 -3.328125 C 7.84375 -3.546875 7.898438 -3.835938 7.921875 -4.203125 C 7.921875 -4.554688 7.921875 -4.984375 7.921875 -5.484375 L 7.890625 -11.671875 L 12.15625 -11.96875 L 12.171875 -5.765625 C 12.171875 -4.984375 12.125 -4.226562 12.03125 -3.5 C 11.9375 -2.75 11.695312 -2.078125 11.3125 -1.484375 C 10.925781 -0.890625 10.34375 -0.421875 9.5625 -0.078125 C 8.78125 0.296875 7.707031 0.484375 6.34375 0.484375 C 5.082031 0.484375 4.082031 0.296875 3.34375 -0.078125 C 2.59375 -0.441406 2.03125 -0.914062 1.65625 -1.5 C 1.25 -2.082031 0.992188 -2.75 0.890625 -3.5 C 0.773438 -4.226562 0.71875 -4.96875 0.71875 -5.71875 Z M 0.734375 -11.671875 "/></g></g></g><g fill="#ffffff" fill-opacity="1"><g transform="translate(65.873003, 22.426205)"><g><path d="M 0.484375 -10.71875 L 0.484375 -16.5 L 12.890625 -16.75 L 12.96875 -10.953125 L 9.515625 -10.890625 L 9.59375 0 L 4.234375 0 L 4.359375 -10.78125 Z M 0.484375 -10.71875 "/></g></g></g><g fill="#ffffff" fill-opacity="1"><g transform="translate(79.080459, 22.426205)"><g><path d="M 5.03125 -11.71875 L 4.78125 -8.78125 C 5.101562 -9.863281 5.566406 -10.671875 6.171875 -11.203125 C 6.773438 -11.710938 7.4375 -11.96875 8.15625 -11.96875 C 8.695312 -11.96875 9.144531 -11.851562 9.5 -11.625 C 9.84375 -11.382812 10.117188 -11.039062 10.328125 -10.59375 C 10.535156 -10.144531 10.679688 -9.597656 10.765625 -8.953125 C 10.847656 -8.296875 10.878906 -7.550781 10.859375 -6.71875 L 6.296875 -6.25 C 6.265625 -6.789062 6.222656 -7.21875 6.171875 -7.53125 C 6.117188 -7.851562 5.925781 -8.015625 5.59375 -8.015625 C 5.382812 -8.015625 5.09375 -7.941406 4.71875 -7.796875 L 4.71875 0 L 0.546875 0 C 0.546875 -1.414062 0.546875 -2.800781 0.546875 -4.15625 C 0.535156 -5.519531 0.53125 -6.742188 0.53125 -7.828125 C 0.507812 -9.085938 0.492188 -10.289062 0.484375 -11.4375 Z M 5.03125 -11.71875 "/></g></g></g><g fill="#ffffff" fill-opacity="1"><g transform="translate(90.062752, 22.426205)"><g><path d="M 0.484375 -2.78125 C 0.484375 -3.257812 0.566406 -3.65625 0.734375 -3.96875 C 0.910156 -4.289062 1.144531 -4.546875 1.4375 -4.734375 C 1.71875 -4.929688 2.050781 -5.066406 2.4375 -5.140625 C 2.820312 -5.222656 3.226562 -5.265625 3.65625 -5.265625 C 4.425781 -5.265625 5.191406 -5.175781 5.953125 -5 C 6.703125 -4.8125 7.332031 -4.613281 7.84375 -4.40625 L 7.84375 -7.484375 L 0.953125 -6.890625 L 0.953125 -11.96875 C 2.421875 -11.945312 3.8125 -11.921875 5.125 -11.890625 C 6.414062 -11.859375 7.554688 -11.816406 8.546875 -11.765625 C 9.691406 -11.722656 10.75 -11.675781 11.71875 -11.625 L 11.609375 0 L 7.9375 0 L 7.875 -1.65625 C 7.3125 -1.144531 6.664062 -0.742188 5.9375 -0.453125 C 5.1875 -0.148438 4.453125 0 3.734375 0 C 3.191406 0 2.710938 -0.078125 2.296875 -0.234375 C 1.878906 -0.378906 1.546875 -0.582031 1.296875 -0.84375 C 1.023438 -1.09375 0.820312 -1.382812 0.6875 -1.71875 C 0.550781 -2.050781 0.484375 -2.40625 0.484375 -2.78125 Z M 3.5625 -2.65625 C 3.5625 -2.363281 3.675781 -2.15625 3.90625 -2.03125 C 4.125 -1.882812 4.414062 -1.8125 4.78125 -1.8125 C 4.976562 -1.8125 5.171875 -1.863281 5.359375 -1.96875 C 5.535156 -2.039062 5.703125 -2.132812 5.859375 -2.25 C 6.015625 -2.363281 6.175781 -2.5 6.34375 -2.65625 C 6.175781 -2.8125 6.015625 -2.953125 5.859375 -3.078125 C 5.703125 -3.191406 5.535156 -3.296875 5.359375 -3.390625 C 5.171875 -3.472656 4.976562 -3.515625 4.78125 -3.515625 C 4.414062 -3.515625 4.125 -3.441406 3.90625 -3.296875 C 3.675781 -3.140625 3.5625 -2.925781 3.5625 -2.65625 Z M 3.5625 -2.65625 "/></g></g></g><g fill="#ffffff" fill-opacity="1"><g transform="translate(102.265298, 22.426205)"><g><path d="M 0.484375 -5.9375 C 0.484375 -6.695312 0.515625 -7.445312 0.578125 -8.1875 C 0.640625 -8.894531 0.847656 -9.539062 1.203125 -10.125 C 1.546875 -10.695312 2.09375 -11.171875 2.84375 -11.546875 C 3.59375 -11.921875 4.65625 -12.140625 6.03125 -12.203125 L 6.453125 -12.203125 C 7.648438 -12.203125 8.609375 -12.007812 9.328125 -11.625 C 10.023438 -11.226562 10.5625 -10.734375 10.9375 -10.140625 C 11.300781 -9.535156 11.539062 -8.875 11.65625 -8.15625 C 11.757812 -7.425781 11.820312 -6.722656 11.84375 -6.046875 L 7.609375 -5.765625 C 7.609375 -6.054688 7.597656 -6.335938 7.578125 -6.609375 C 7.546875 -6.878906 7.492188 -7.125 7.421875 -7.34375 C 7.316406 -7.5625 7.195312 -7.742188 7.0625 -7.890625 C 6.894531 -8.015625 6.675781 -8.078125 6.40625 -8.078125 C 6.28125 -8.078125 6.175781 -8.070312 6.09375 -8.0625 C 5.726562 -8 5.453125 -7.910156 5.265625 -7.796875 C 5.054688 -7.679688 4.910156 -7.519531 4.828125 -7.3125 C 4.734375 -7.09375 4.679688 -6.816406 4.671875 -6.484375 C 4.648438 -6.148438 4.640625 -5.71875 4.640625 -5.1875 C 4.640625 -4.675781 4.648438 -4.226562 4.671875 -3.84375 C 4.679688 -3.46875 4.734375 -3.148438 4.828125 -2.890625 C 4.910156 -2.640625 5.054688 -2.453125 5.265625 -2.328125 C 5.453125 -2.191406 5.726562 -2.125 6.09375 -2.125 C 6.46875 -2.125 6.757812 -2.179688 6.96875 -2.296875 C 7.164062 -2.410156 7.316406 -2.578125 7.421875 -2.796875 C 7.515625 -3.023438 7.566406 -3.3125 7.578125 -3.65625 C 7.597656 -3.988281 7.609375 -4.378906 7.609375 -4.828125 L 11.84375 -5.234375 C 11.820312 -4.503906 11.75 -3.796875 11.625 -3.109375 C 11.476562 -2.410156 11.207031 -1.796875 10.8125 -1.265625 C 10.394531 -0.722656 9.8125 -0.289062 9.0625 0.03125 C 8.3125 0.34375 7.304688 0.5 6.046875 0.5 C 4.804688 0.5 3.816406 0.304688 3.078125 -0.078125 C 2.335938 -0.441406 1.773438 -0.9375 1.390625 -1.5625 C 1.003906 -2.164062 0.753906 -2.847656 0.640625 -3.609375 C 0.535156 -4.378906 0.484375 -5.15625 0.484375 -5.9375 Z M 0.484375 -5.9375 "/></g></g></g><g fill="#ffffff" fill-opacity="1"><g transform="translate(114.53962, 22.426205)"><g><path d="M 5.375 -16.765625 L 4.96875 -7.375 C 5.007812 -7.351562 5.050781 -7.34375 5.09375 -7.34375 C 5.1875 -7.3125 5.28125 -7.296875 5.375 -7.296875 C 5.550781 -7.296875 5.753906 -7.34375 5.984375 -7.4375 C 6.191406 -7.519531 6.390625 -7.710938 6.578125 -8.015625 C 6.765625 -8.296875 6.925781 -8.71875 7.0625 -9.28125 C 7.1875 -9.820312 7.25 -10.554688 7.25 -11.484375 L 13.109375 -11.96875 C 13.078125 -11.820312 13.015625 -11.570312 12.921875 -11.21875 C 12.804688 -10.863281 12.660156 -10.460938 12.484375 -10.015625 C 12.304688 -9.578125 12.09375 -9.117188 11.84375 -8.640625 C 11.570312 -8.160156 11.253906 -7.726562 10.890625 -7.34375 C 10.515625 -6.945312 10.085938 -6.617188 9.609375 -6.359375 C 9.117188 -6.109375 8.5625 -5.984375 7.9375 -5.984375 C 8.65625 -5.984375 9.28125 -5.898438 9.8125 -5.734375 C 10.332031 -5.566406 10.773438 -5.347656 11.140625 -5.078125 C 11.492188 -4.785156 11.785156 -4.460938 12.015625 -4.109375 C 12.210938 -3.742188 12.367188 -3.378906 12.484375 -3.015625 C 12.773438 -2.140625 12.851562 -1.144531 12.71875 -0.03125 L 7.9375 -0.03125 L 7.890625 -3.328125 C 7.890625 -3.660156 7.859375 -3.921875 7.796875 -4.109375 C 7.710938 -4.304688 7.617188 -4.453125 7.515625 -4.546875 C 7.378906 -4.640625 7.242188 -4.703125 7.109375 -4.734375 C 6.941406 -4.753906 6.789062 -4.765625 6.65625 -4.765625 C 6.15625 -4.765625 5.726562 -4.664062 5.375 -4.46875 C 5.03125 -4.28125 4.859375 -3.882812 4.859375 -3.28125 L 4.78125 -0.03125 L 0.40625 -0.03125 L 0.328125 -16.484375 Z M 5.375 -16.765625 "/></g></g></g></svg>