<svg xmlns="http://www.w3.org/2000/svg" xmlns:xlink="http://www.w3.org/1999/xlink" width="178" zoomAndPan="magnify" viewBox="0 0 133.5 30.000001" height="40" preserveAspectRatio="xMidYMid meet" version="1.0"><defs><g/><clipPath id="1f49ce1f7e"><path d="M 7.195312 2.035156 L 26.792969 2.035156 L 26.792969 26.714844 L 7.195312 26.714844 Z M 7.195312 2.035156 " clip-rule="nonzero"/></clipPath></defs><g clip-path="url(#1f49ce1f7e)"><path fill="#ffffff" d="M 17.101562 18.632812 L 17.101562 9.445312 L 14.195312 9.445312 L 20.488281 2.050781 L 26.78125 9.445312 L 23.875 9.445312 L 23.875 18.632812 C 23.875 23.222656 20.121094 26.976562 15.535156 26.976562 C 13.242188 26.976562 11.15625 26.035156 9.644531 24.523438 C 11.871094 25.765625 17.101562 25.207031 17.101562 18.632812 Z M 13.96875 10.914062 L 13.96875 18.632812 C 13.96875 19.457031 14.648438 20.15625 15.464844 20.195312 C 14.484375 25.03125 7.195312 24.421875 7.195312 18.632812 L 7.195312 10.914062 Z M 13.96875 10.914062 " fill-opacity="1" fill-rule="evenodd"/></g><g fill="#ffffff" fill-opacity="1"><g transform="translate(37.94699, 26.630037)"><g><path d="M 9.75 -6.109375 L 9.75 -24.140625 C 9.75 -24.335938 9.796875 -24.503906 9.890625 -24.640625 C 9.992188 -24.785156 10.140625 -24.859375 10.328125 -24.859375 L 13.984375 -24.859375 C 14.179688 -24.859375 14.320312 -24.785156 14.40625 -24.640625 C 14.5 -24.492188 14.546875 -24.328125 14.546875 -24.140625 L 14.546875 -5.84375 C 14.546875 -4.976562 14.363281 -4.164062 14 -3.40625 C 13.644531 -2.65625 13.15625 -1.992188 12.53125 -1.421875 C 11.914062 -0.859375 11.203125 -0.414062 10.390625 -0.09375 C 9.585938 0.226562 8.734375 0.390625 7.828125 0.390625 C 6.929688 0.390625 6.078125 0.226562 5.265625 -0.09375 C 4.460938 -0.414062 3.75 -0.859375 3.125 -1.421875 C 2.507812 -1.992188 2.019531 -2.65625 1.65625 -3.40625 C 1.300781 -4.164062 1.125 -4.976562 1.125 -5.84375 L 1.125 -24.171875 C 1.125 -24.359375 1.171875 -24.519531 1.265625 -24.65625 C 1.367188 -24.789062 1.476562 -24.859375 1.59375 -24.859375 L 5.390625 -24.859375 C 5.609375 -24.859375 5.75 -24.789062 5.8125 -24.65625 C 5.882812 -24.519531 5.921875 -24.359375 5.921875 -24.171875 L 5.921875 -6.109375 C 5.921875 -5.546875 6.085938 -5.039062 6.421875 -4.59375 C 6.765625 -4.15625 7.242188 -3.9375 7.859375 -3.9375 C 8.265625 -3.9375 8.609375 -4.035156 8.890625 -4.234375 C 9.171875 -4.441406 9.382812 -4.710938 9.53125 -5.046875 C 9.675781 -5.378906 9.75 -5.734375 9.75 -6.109375 Z M 9.75 -6.109375 "/></g></g></g><g fill="#ffffff" fill-opacity="1"><g transform="translate(53.631012, 26.630037)"><g><path d="M 11.984375 -20.5 L 8.640625 -20.5 L 8.640625 -0.625 C 8.640625 -0.425781 8.585938 -0.269531 8.484375 -0.15625 C 8.390625 -0.0507812 8.269531 0 8.125 0 L 4.359375 0 C 4.203125 0 4.078125 -0.0507812 3.984375 -0.15625 C 3.890625 -0.269531 3.84375 -0.425781 3.84375 -0.625 L 3.84375 -20.5 L 0.5 -20.5 C 0.34375 -20.5 0.21875 -20.550781 0.125 -20.65625 C 0.03125 -20.769531 -0.015625 -20.929688 -0.015625 -21.140625 L -0.015625 -24.203125 C -0.015625 -24.421875 0.03125 -24.582031 0.125 -24.6875 C 0.21875 -24.800781 0.34375 -24.859375 0.5 -24.859375 L 11.984375 -24.859375 C 12.140625 -24.859375 12.265625 -24.804688 12.359375 -24.703125 C 12.453125 -24.597656 12.5 -24.4375 12.5 -24.21875 L 12.5 -21.140625 C 12.5 -20.929688 12.453125 -20.769531 12.359375 -20.65625 C 12.265625 -20.550781 12.140625 -20.5 11.984375 -20.5 Z M 11.984375 -20.5 "/></g></g></g><g fill="#ffffff" fill-opacity="1"><g transform="translate(66.09918, 26.630037)"><g><path d="M 9.9375 -15.390625 L 9.9375 -18.375 C 9.9375 -19.019531 9.742188 -19.535156 9.359375 -19.921875 C 8.984375 -20.304688 8.488281 -20.5 7.875 -20.5 L 6.078125 -20.5 L 6.078125 -13.375 L 7.75 -13.375 C 8.46875 -13.375 9.007812 -13.554688 9.375 -13.921875 C 9.75 -14.296875 9.9375 -14.785156 9.9375 -15.390625 Z M 13.921875 -0.015625 L 10.625 -0.015625 C 10.414062 -0.015625 10.222656 -0.0820312 10.046875 -0.21875 C 9.878906 -0.363281 9.796875 -0.566406 9.796875 -0.828125 L 9.796875 -4.578125 C 9.796875 -6.316406 9.484375 -7.578125 8.859375 -8.359375 C 8.234375 -9.148438 7.304688 -9.585938 6.078125 -9.671875 L 6.078125 -0.671875 C 6.078125 -0.222656 5.878906 0 5.484375 0 L 1.890625 0 C 1.492188 0 1.296875 -0.222656 1.296875 -0.671875 L 1.296875 -24.171875 C 1.296875 -24.628906 1.5 -24.859375 1.90625 -24.859375 L 8.25 -24.859375 C 9.164062 -24.859375 10.019531 -24.691406 10.8125 -24.359375 C 11.601562 -24.023438 12.289062 -23.554688 12.875 -22.953125 C 13.46875 -22.359375 13.925781 -21.671875 14.25 -20.890625 C 14.570312 -20.117188 14.734375 -19.28125 14.734375 -18.375 L 14.734375 -15.8125 C 14.734375 -14.75 14.488281 -13.84375 14 -13.09375 C 13.507812 -12.34375 12.894531 -11.722656 12.15625 -11.234375 C 12.976562 -10.546875 13.585938 -9.617188 13.984375 -8.453125 C 14.378906 -7.285156 14.578125 -5.800781 14.578125 -4 L 14.578125 -0.765625 C 14.578125 -0.609375 14.523438 -0.441406 14.421875 -0.265625 C 14.328125 -0.0976562 14.160156 -0.015625 13.921875 -0.015625 Z M 13.921875 -0.015625 "/></g></g></g><g fill="#ffffff" fill-opacity="1"><g transform="translate(81.801166, 26.630037)"><g><path d="M 5.921875 -18.75 L 5.921875 -10.109375 L 9.75 -10.109375 L 9.75 -18.75 C 9.75 -19.320312 9.582031 -19.820312 9.25 -20.25 C 8.914062 -20.6875 8.453125 -20.90625 7.859375 -20.90625 C 7.242188 -20.90625 6.765625 -20.6875 6.421875 -20.25 C 6.085938 -19.820312 5.921875 -19.320312 5.921875 -18.75 Z M 14.546875 -19.03125 L 14.546875 -0.71875 C 14.546875 -0.539062 14.5 -0.375 14.40625 -0.21875 C 14.320312 -0.0703125 14.179688 0 13.984375 0 L 10.328125 0 C 10.148438 0 10.007812 -0.0703125 9.90625 -0.21875 C 9.800781 -0.363281 9.75 -0.53125 9.75 -0.71875 L 9.75 -5.921875 L 5.921875 -5.921875 L 5.921875 -0.703125 C 5.921875 -0.503906 5.882812 -0.335938 5.8125 -0.203125 C 5.75 -0.0664062 5.609375 0 5.390625 0 L 1.59375 0 C 1.46875 0 1.359375 -0.0664062 1.265625 -0.203125 C 1.171875 -0.335938 1.125 -0.503906 1.125 -0.703125 L 1.125 -19.03125 C 1.125 -19.894531 1.300781 -20.703125 1.65625 -21.453125 C 2.019531 -22.203125 2.507812 -22.863281 3.125 -23.4375 C 3.75 -24.007812 4.460938 -24.457031 5.265625 -24.78125 C 6.078125 -25.101562 6.929688 -25.265625 7.828125 -25.265625 C 8.734375 -25.265625 9.585938 -25.101562 10.390625 -24.78125 C 11.203125 -24.457031 11.914062 -24.007812 12.53125 -23.4375 C 13.15625 -22.863281 13.644531 -22.203125 14 -21.453125 C 14.363281 -20.703125 14.546875 -19.894531 14.546875 -19.03125 Z M 14.546875 -19.03125 "/></g></g></g><g fill="#ffffff" fill-opacity="1"><g transform="translate(97.485189, 26.630037)"><g><path d="M 13.953125 -18.921875 L 13.953125 -17.171875 C 13.953125 -16.898438 13.914062 -16.703125 13.84375 -16.578125 C 13.78125 -16.453125 13.628906 -16.390625 13.390625 -16.390625 L 10.046875 -16.390625 C 9.828125 -16.390625 9.675781 -16.445312 9.59375 -16.5625 C 9.519531 -16.675781 9.484375 -16.859375 9.484375 -17.109375 L 9.484375 -18.78125 C 9.484375 -19.132812 9.410156 -19.472656 9.265625 -19.796875 C 9.128906 -20.128906 8.921875 -20.398438 8.640625 -20.609375 C 8.367188 -20.828125 8.035156 -20.9375 7.640625 -20.9375 C 7.046875 -20.9375 6.566406 -20.722656 6.203125 -20.296875 C 5.847656 -19.867188 5.671875 -19.375 5.671875 -18.8125 L 5.671875 -6.109375 C 5.671875 -5.734375 5.75 -5.378906 5.90625 -5.046875 C 6.0625 -4.710938 6.285156 -4.441406 6.578125 -4.234375 C 6.878906 -4.035156 7.234375 -3.9375 7.640625 -3.9375 C 8.296875 -3.9375 8.78125 -4.15625 9.09375 -4.59375 C 9.414062 -5.039062 9.578125 -5.546875 9.578125 -6.109375 L 9.578125 -8.25 C 9.578125 -8.519531 9.613281 -8.703125 9.6875 -8.796875 C 9.769531 -8.898438 9.910156 -8.953125 10.109375 -8.953125 L 13.46875 -8.953125 C 13.675781 -8.953125 13.828125 -8.910156 13.921875 -8.828125 C 14.015625 -8.742188 14.0625 -8.5625 14.0625 -8.28125 L 14.0625 -5.84375 C 14.0625 -4.550781 13.769531 -3.4375 13.1875 -2.5 C 12.613281 -1.5625 11.835938 -0.84375 10.859375 -0.34375 C 9.878906 0.144531 8.789062 0.390625 7.59375 0.390625 C 6.695312 0.390625 5.84375 0.25 5.03125 -0.03125 C 4.226562 -0.3125 3.515625 -0.71875 2.890625 -1.25 C 2.265625 -1.789062 1.773438 -2.445312 1.421875 -3.21875 C 1.066406 -4 0.890625 -4.875 0.890625 -5.84375 L 0.890625 -19.015625 C 0.890625 -19.898438 1.054688 -20.722656 1.390625 -21.484375 C 1.722656 -22.242188 2.1875 -22.90625 2.78125 -23.46875 C 3.382812 -24.03125 4.09375 -24.46875 4.90625 -24.78125 C 5.71875 -25.09375 6.613281 -25.25 7.59375 -25.25 C 8.6875 -25.25 9.632812 -25.066406 10.4375 -24.703125 C 11.238281 -24.347656 11.898438 -23.867188 12.421875 -23.265625 C 12.941406 -22.671875 13.328125 -21.992188 13.578125 -21.234375 C 13.828125 -20.484375 13.953125 -19.710938 13.953125 -18.921875 Z M 13.953125 -18.921875 "/></g></g></g><g fill="#ffffff" fill-opacity="1"><g transform="translate(112.235001, 26.630037)"><g><path d="M 11.671875 -12.484375 C 12.703125 -11.691406 13.503906 -10.691406 14.078125 -9.484375 C 14.660156 -8.273438 14.953125 -6.875 14.953125 -5.28125 L 14.953125 -0.75 C 14.953125 -0.59375 14.898438 -0.425781 14.796875 -0.25 C 14.703125 -0.0820312 14.535156 0 14.296875 0 L 10.953125 0 C 10.753906 0 10.570312 -0.0664062 10.40625 -0.203125 C 10.238281 -0.335938 10.15625 -0.539062 10.15625 -0.8125 L 10.15625 -4.71875 C 10.15625 -5.757812 10.035156 -6.675781 9.796875 -7.46875 C 9.554688 -8.257812 9.140625 -8.882812 8.546875 -9.34375 C 7.953125 -9.8125 7.128906 -10.066406 6.078125 -10.109375 L 6.078125 -0.6875 C 6.078125 -0.226562 5.882812 0 5.5 0 L 1.90625 0 C 1.5 0 1.296875 -0.226562 1.296875 -0.6875 L 1.296875 -24.171875 C 1.296875 -24.628906 1.5 -24.859375 1.90625 -24.859375 L 5.484375 -24.859375 C 5.878906 -24.859375 6.078125 -24.628906 6.078125 -24.171875 L 6.078125 -14.625 C 7.066406 -14.707031 7.835938 -14.984375 8.390625 -15.453125 C 8.941406 -15.921875 9.332031 -16.546875 9.5625 -17.328125 C 9.789062 -18.109375 9.90625 -19.003906 9.90625 -20.015625 L 9.90625 -24.046875 C 9.90625 -24.316406 9.988281 -24.519531 10.15625 -24.65625 C 10.332031 -24.789062 10.519531 -24.859375 10.71875 -24.859375 L 14.046875 -24.859375 C 14.285156 -24.859375 14.453125 -24.769531 14.546875 -24.59375 C 14.648438 -24.425781 14.703125 -24.257812 14.703125 -24.09375 L 14.703125 -19.46875 C 14.703125 -17.945312 14.4375 -16.597656 13.90625 -15.421875 C 13.375 -14.253906 12.628906 -13.273438 11.671875 -12.484375 Z M 11.671875 -12.484375 "/></g></g></g></svg>